<!-- Generator: Adobe Illustrator 25.2.0, SVG Export Plug-In  -->
<svg version="1.1" xmlns="http://www.w3.org/2000/svg" xmlns:xlink="http://www.w3.org/1999/xlink" x="0px" y="0px"
	 width="123.55px" height="90.57px" viewBox="0 0 123.55 90.57" style="overflow:visible;enable-background:new 0 0 123.55 90.57;"
	 xml:space="preserve">
<style type="text/css">
	.st0{fill:#FFFFFF;}
</style>
<defs>
</defs>
<g>
	<path class="st0" d="M0.11,2.14H8.5c2.54,0,4.43,0.44,5.67,1.32c1.24,0.88,1.86,2.22,1.86,4.02c0,1.24-0.4,2.28-1.2,3.12
		c-0.8,0.84-1.99,1.48-3.57,1.9c1.93,0.02,3.43,0.5,4.5,1.42c1.08,0.93,1.61,2.21,1.61,3.85c0,2.09-0.74,3.68-2.21,4.79
		c-1.47,1.1-3.6,1.65-6.38,1.65H0.11v-1.35l1.86-0.16l0.56-0.47V4.11L1.98,3.65L0.11,3.45V2.14z M5.51,12.12
		c0.14,0.01,0.3,0.02,0.47,0.02c0.18,0.01,0.43,0.01,0.76,0.01c2.08,0,3.6-0.37,4.57-1.1c0.97-0.73,1.45-1.89,1.45-3.46
		c0-1.34-0.45-2.34-1.35-3.01c-0.9-0.67-2.25-1-4.05-1c-0.16,0-0.45,0.01-0.86,0.04C6.1,3.65,5.76,3.67,5.49,3.68L5.51,12.12z
		 M5.51,22.56c0.4,0.03,0.78,0.06,1.14,0.07c0.36,0.02,0.72,0.02,1.06,0.02c2.25,0,3.88-0.37,4.91-1.12
		c1.02-0.74,1.53-1.93,1.53-3.56c0-1.49-0.45-2.6-1.34-3.32c-0.89-0.73-2.26-1.09-4.09-1.09c-0.43,0-0.91,0.02-1.45,0.06
		c-0.54,0.04-1.13,0.09-1.77,0.15L5.51,22.56z"/>
	<path class="st0" d="M27.74,8.05c2.24,0,4.07,0.77,5.51,2.3c1.43,1.54,2.15,3.51,2.15,5.92s-0.72,4.38-2.16,5.92
		c-1.44,1.54-3.27,2.3-5.5,2.3c-2.23,0-4.06-0.77-5.48-2.3c-1.43-1.53-2.14-3.51-2.14-5.93c0-2.42,0.71-4.4,2.13-5.93
		C23.65,8.81,25.49,8.05,27.74,8.05z M27.74,9.46c-1.37,0-2.47,0.62-3.3,1.85c-0.83,1.24-1.24,2.89-1.24,4.95s0.42,3.72,1.25,4.95
		c0.84,1.24,1.93,1.85,3.29,1.85c1.38,0,2.49-0.62,3.32-1.85c0.84-1.23,1.25-2.89,1.25-4.96c0-2.06-0.42-3.7-1.26-4.95
		S29.11,9.46,27.74,9.46z M29.71,0h3.26l-4.8,6.25h-1.65L29.71,0z"/>
	<path class="st0" d="M37.44,24.2v-1.19l1.78-0.16l0.56-0.53V2.2h-2.54V1.17L41.26,0h1.25v15.82h0.63l5.03-5.62l-0.22-0.47
		L46.45,9.6V8.38h6.25V9.6l-2.1,0.26l-4.5,4.77l5.78,8.16l2.1,0.16v1.25h-5.12v-1.09l-4.45-6.38h-1.9v5.59l0.58,0.53l1.56,0.16v1.19
		H37.44z"/>
	<path class="st0" d="M58.27,0h1.25v10.02c1.3-0.72,2.35-1.23,3.17-1.53c0.82-0.3,1.53-0.45,2.14-0.45c1.45,0,2.55,0.43,3.31,1.28
		c0.76,0.86,1.14,2.1,1.14,3.73v9.27l0.56,0.53l1.73,0.16v1.19h-7.16v-1.19l1.54-0.16l0.56-0.53v-8.7c0-1.23-0.26-2.1-0.77-2.62
		c-0.51-0.51-1.37-0.77-2.55-0.77c-0.52,0-1.09,0.09-1.7,0.27s-1.27,0.45-1.98,0.81v11.02l0.58,0.53l1.56,0.16v1.19h-7.21v-1.19
		l1.78-0.16l0.56-0.53V2.2h-2.54V1.17L58.27,0z"/>
	<path class="st0" d="M83.16,22.29c-1.06,0.73-2.03,1.27-2.91,1.61c-0.88,0.35-1.71,0.52-2.48,0.52c-1.27,0-2.29-0.39-3.06-1.16
		c-0.77-0.77-1.15-1.79-1.15-3.05c0-1.4,0.58-2.51,1.73-3.31c1.15-0.8,3.78-1.7,7.88-2.68v-1.04c0-1.38-0.22-2.34-0.67-2.87
		c-0.45-0.54-1.23-0.8-2.34-0.8c-0.42,0-0.83,0.04-1.24,0.13c-0.41,0.09-0.83,0.21-1.27,0.39v2.76h-2.26c-0.4,0-0.67-0.07-0.81-0.22
		c-0.14-0.14-0.22-0.41-0.22-0.79c0-1.07,0.62-1.96,1.85-2.67s2.83-1.06,4.79-1.06c1.72,0,2.98,0.38,3.76,1.12
		c0.78,0.75,1.17,1.95,1.17,3.61v9.54l0.56,0.53l1.73,0.16v1.19h-4.63L83.16,22.29z M83.16,21.18v-5.8
		c-2.75,0.76-4.56,1.46-5.42,2.09s-1.29,1.46-1.29,2.49c0,0.82,0.24,1.48,0.71,1.97c0.48,0.49,1.12,0.73,1.92,0.73
		c0.51,0,1.11-0.12,1.77-0.37C81.52,22.04,82.29,21.68,83.16,21.18z"/>
	<path class="st0" d="M89.76,24.2v-1.19l1.94-0.16l0.56-0.53V2.2h-2.54V1.17L93.74,0h1.25v22.32l0.59,0.53l1.88,0.16v1.19H89.76z"/>
	<path class="st0" d="M110.72,2.2h-2.52V1.17L112.21,0h1.24v22.32l0.56,0.53l1.57,0.16v1.19h-4.87v-1.7
		c-0.86,0.69-1.69,1.19-2.51,1.51c-0.81,0.32-1.67,0.48-2.55,0.48c-1.84,0-3.36-0.72-4.55-2.16c-1.19-1.44-1.79-3.28-1.79-5.53
		c0-2.61,0.78-4.73,2.35-6.35c1.57-1.62,3.61-2.43,6.13-2.43c0.44,0,0.9,0.03,1.4,0.1c0.49,0.06,1,0.16,1.53,0.27V2.2z
		 M110.72,21.28V9.99c-0.6-0.17-1.14-0.3-1.61-0.39c-0.48-0.09-0.9-0.14-1.28-0.14c-1.68,0-3.04,0.62-4.07,1.86
		s-1.55,2.88-1.55,4.91c0,1.9,0.45,3.4,1.34,4.51c0.89,1.11,2.09,1.67,3.59,1.67c0.58,0,1.16-0.09,1.76-0.28
		C109.49,21.95,110.1,21.66,110.72,21.28z"/>
	<path class="st0" d="M117.99,29.76v-1.08c1.2-0.24,2.1-0.72,2.71-1.45c0.6-0.73,0.91-1.7,0.91-2.91v-0.35h-2.1
		c-0.18-0.2-0.32-0.42-0.4-0.66c-0.09-0.24-0.13-0.5-0.13-0.79c0-0.54,0.18-0.97,0.55-1.31c0.36-0.34,0.83-0.51,1.4-0.51
		c0.83,0,1.48,0.29,1.94,0.86c0.46,0.57,0.69,1.38,0.69,2.43c0,1.47-0.52,2.75-1.57,3.85C120.93,28.95,119.6,29.59,117.99,29.76z"/>
	<path class="st0" d="M10.34,38.37v3.73H8.72l-0.26-2.33c-0.44-0.24-0.86-0.41-1.25-0.53c-0.4-0.12-0.79-0.18-1.19-0.18
		c-0.86,0-1.53,0.21-2.01,0.63s-0.72,1-0.72,1.75c0,0.61,0.19,1.13,0.58,1.56s1.12,0.9,2.22,1.43c0.17,0.09,0.43,0.21,0.79,0.37
		c1.24,0.57,2.14,1.08,2.7,1.54c0.41,0.32,0.72,0.73,0.93,1.21c0.21,0.49,0.32,1.03,0.32,1.61c0,1.54-0.54,2.75-1.63,3.62
		c-1.09,0.87-2.59,1.31-4.52,1.31c-0.79,0-1.55-0.06-2.27-0.17c-0.72-0.11-1.39-0.29-2-0.52v-4.27h1.57l0.4,2.79
		c0.46,0.27,0.92,0.47,1.39,0.59c0.47,0.13,0.93,0.19,1.41,0.19c0.93,0,1.68-0.24,2.24-0.73c0.56-0.49,0.84-1.13,0.84-1.92
		c0-0.66-0.19-1.21-0.58-1.65s-1.31-0.98-2.76-1.65c-1.65-0.74-2.77-1.43-3.36-2.09c-0.59-0.65-0.89-1.46-0.89-2.42
		c0-1.47,0.51-2.6,1.53-3.4c1.02-0.8,2.45-1.2,4.3-1.2c0.74,0,1.43,0.06,2.06,0.18C9.19,37.96,9.79,38.14,10.34,38.37z"/>
	<path class="st0" d="M12.99,53.81v-1.19l1.78-0.16l0.56-0.53V31.8H12.8v-1.03l4.02-1.17h1.25v15.82h0.63l5.03-5.62l-0.22-0.47
		L22,39.21v-1.22h6.25v1.22l-2.1,0.26l-4.5,4.77l5.78,8.16l2.1,0.16v1.25h-5.12v-1.09l-4.45-6.38h-1.9v5.59l0.58,0.53l1.56,0.16
		v1.19H12.99z"/>
	<path class="st0" d="M40.17,51.89c-1.06,0.73-2.03,1.27-2.91,1.61c-0.88,0.35-1.71,0.52-2.48,0.52c-1.27,0-2.29-0.39-3.06-1.16
		c-0.77-0.77-1.15-1.79-1.15-3.05c0-1.4,0.58-2.51,1.73-3.31c1.15-0.8,3.78-1.7,7.88-2.68v-1.04c0-1.38-0.22-2.34-0.67-2.87
		c-0.45-0.54-1.23-0.8-2.34-0.8c-0.42,0-0.83,0.04-1.24,0.13c-0.41,0.09-0.83,0.21-1.27,0.39v2.76h-2.26c-0.4,0-0.67-0.07-0.81-0.22
		c-0.14-0.14-0.22-0.41-0.22-0.79c0-1.07,0.62-1.96,1.85-2.67s2.83-1.06,4.79-1.06c1.72,0,2.98,0.38,3.76,1.12
		c0.78,0.75,1.17,1.95,1.17,3.61v9.54l0.56,0.53l1.73,0.16v1.19H40.6L40.17,51.89z M40.17,50.79v-5.8
		c-2.75,0.76-4.56,1.46-5.42,2.09s-1.29,1.46-1.29,2.49c0,0.82,0.24,1.48,0.71,1.97c0.48,0.49,1.12,0.73,1.92,0.73
		c0.51,0,1.11-0.12,1.77-0.37C38.53,51.65,39.3,51.28,40.17,50.79z"/>
	<path class="st0" d="M48.74,39.96h-2.07v-1.03l2.17-0.95l1.41-3.07h1.22v3.5h5.01v1.54h-5.01v8.67c0,1.42,0.2,2.38,0.59,2.87
		c0.4,0.49,1.11,0.73,2.14,0.73c0.35,0,0.72-0.02,1.1-0.06c0.38-0.04,0.77-0.11,1.18-0.21v1.22c-0.75,0.24-1.49,0.42-2.22,0.54
		s-1.43,0.18-2.1,0.18c-1.26,0-2.15-0.24-2.66-0.71s-0.76-1.35-0.76-2.61V39.96z"/>
	<path class="st0" d="M59.73,39.96h-2.07v-1.03l2.17-0.95l1.41-3.07h1.22v3.5h5.01v1.54h-5.01v8.67c0,1.42,0.2,2.38,0.59,2.87
		c0.4,0.49,1.11,0.73,2.14,0.73c0.35,0,0.72-0.02,1.1-0.06c0.38-0.04,0.77-0.11,1.18-0.21v1.22c-0.75,0.24-1.49,0.42-2.22,0.54
		s-1.43,0.18-2.1,0.18c-1.26,0-2.15-0.24-2.66-0.71s-0.76-1.35-0.76-2.61V39.96z"/>
	<path class="st0" d="M72.49,37.65h1.25v10.89c0,1.2,0.26,2.08,0.77,2.64c0.51,0.56,1.32,0.84,2.41,0.84c0.61,0,1.23-0.08,1.85-0.24
		c0.63-0.16,1.28-0.41,1.97-0.74V39.9H78.4v-1.03l3.82-1.22h1.25v14.28l0.59,0.53l1.54,0.16v1.19h-4.87v-1.85
		c-1.03,0.74-1.98,1.28-2.85,1.64c-0.87,0.35-1.7,0.53-2.48,0.53c-1.42,0-2.51-0.43-3.27-1.29s-1.13-2.11-1.13-3.73v-9.2h-2.34
		v-1.03L72.49,37.65z"/>
	<path class="st0" d="M87.51,53.81v-1.19l1.75-0.16l0.56-0.53v-11.9h-2.31V39l3.82-1.17h1.25v3.08c0.54-0.55,1.09-1.08,1.68-1.61
		c0.58-0.53,1.2-1.05,1.84-1.57c0.1-0.03,0.2-0.05,0.31-0.06c0.11-0.01,0.28-0.02,0.51-0.02c0.33,0,0.66,0.03,0.98,0.1
		c0.32,0.07,0.65,0.18,1,0.33v2.83h-1.04c-0.21-0.26-0.46-0.45-0.75-0.59c-0.28-0.13-0.6-0.2-0.94-0.2c-0.52,0-1.08,0.2-1.66,0.59
		s-1.22,1-1.92,1.82v9.4l0.56,0.53l2.3,0.16v1.19H87.51z"/>
	<path class="st0" d="M96.76,59.36v-1.08c1.2-0.24,2.1-0.72,2.71-1.45c0.6-0.73,0.91-1.7,0.91-2.91v-0.35h-2.1
		c-0.18-0.2-0.32-0.42-0.4-0.66c-0.09-0.24-0.13-0.5-0.13-0.79c0-0.54,0.18-0.97,0.55-1.31c0.36-0.34,0.83-0.51,1.4-0.51
		c0.83,0,1.48,0.29,1.94,0.86c0.46,0.57,0.69,1.38,0.69,2.43c0,1.47-0.52,2.75-1.57,3.85C99.69,58.56,98.37,59.19,96.76,59.36z"/>
	<path class="st0" d="M0,83.41v-1.19l1.75-0.16l0.56-0.53v-11.9H0V68.6l3.82-1.17h1.25v3.08c0.54-0.55,1.09-1.08,1.68-1.61
		c0.58-0.53,1.2-1.05,1.84-1.57c0.1-0.03,0.2-0.05,0.31-0.06c0.11-0.01,0.28-0.02,0.51-0.02c0.33,0,0.66,0.03,0.98,0.1
		c0.32,0.07,0.65,0.18,1,0.33v2.83h-1.04c-0.21-0.26-0.46-0.45-0.75-0.59c-0.28-0.13-0.6-0.2-0.94-0.2c-0.52,0-1.08,0.2-1.66,0.59
		s-1.22,1-1.92,1.82v9.4l0.56,0.53l2.3,0.16v1.19H0z"/>
	<path class="st0" d="M22.56,81.5c-1.06,0.73-2.03,1.27-2.91,1.61c-0.88,0.35-1.71,0.52-2.48,0.52c-1.27,0-2.29-0.39-3.06-1.16
		c-0.77-0.77-1.15-1.79-1.15-3.05c0-1.4,0.58-2.51,1.73-3.31c1.15-0.8,3.78-1.7,7.88-2.68v-1.04c0-1.38-0.22-2.34-0.67-2.87
		c-0.45-0.54-1.23-0.8-2.34-0.8c-0.42,0-0.83,0.04-1.24,0.13c-0.41,0.09-0.83,0.21-1.27,0.39v2.76h-2.26c-0.4,0-0.67-0.07-0.81-0.22
		c-0.14-0.14-0.22-0.41-0.22-0.79c0-1.07,0.62-1.96,1.85-2.67s2.83-1.06,4.79-1.06c1.72,0,2.98,0.38,3.76,1.12
		c0.78,0.75,1.17,1.95,1.17,3.61v9.54l0.56,0.53l1.73,0.16v1.19H23L22.56,81.5z M22.56,80.39v-5.8c-2.75,0.76-4.56,1.46-5.42,2.09
		s-1.29,1.46-1.29,2.49c0,0.82,0.24,1.48,0.71,1.97c0.48,0.49,1.12,0.73,1.92,0.73c0.51,0,1.11-0.12,1.77-0.37
		C20.93,81.25,21.7,80.88,22.56,80.39z M21.87,59.21h3.26l-4.8,6.25h-1.65L21.87,59.21z"/>
	<path class="st0" d="M39.49,67.65c-0.39-0.63-0.8-1.25-1.24-1.86c-0.44-0.61-0.9-1.2-1.38-1.78l-4.22,2.52l-0.72-1.24l3.85-2.34
		l-1.19-1.35l-2.67-0.22v-0.96l3.73-1.11l2.33,2.39l3.61-2.17l0.74,1.28l-3.39,2.04c1.9,2.19,3.29,4.24,4.18,6.14
		s1.34,3.78,1.34,5.63c0,2.68-0.72,4.86-2.15,6.56s-3.25,2.55-5.44,2.55c-2.22,0-4.03-0.78-5.43-2.34c-1.4-1.56-2.1-3.56-2.1-6.01
		c0-2.34,0.75-4.26,2.26-5.73s3.44-2.22,5.82-2.22c0.27,0,0.56,0.02,0.87,0.05C38.6,67.51,39,67.57,39.49,67.65z M40.33,69.23
		c-0.55-0.14-1.03-0.24-1.46-0.31c-0.43-0.07-0.81-0.1-1.14-0.1c-1.68,0-2.99,0.58-3.93,1.74s-1.41,2.79-1.41,4.89
		c0,2.1,0.43,3.77,1.28,5.03c0.86,1.25,1.98,1.88,3.36,1.88c1.41,0,2.54-0.65,3.38-1.94c0.84-1.29,1.26-3.05,1.26-5.25
		c0-1.27-0.11-2.39-0.34-3.36S40.78,69.98,40.33,69.23z"/>
	<path class="st0" d="M57.75,68.19h4.71v1.54h-3.63c0.32,0.48,0.56,0.97,0.71,1.46c0.15,0.49,0.22,1.02,0.22,1.59
		c0,1.51-0.58,2.74-1.75,3.7s-2.68,1.44-4.54,1.44h-0.55c-0.13,0.25-0.22,0.49-0.28,0.74c-0.06,0.25-0.09,0.49-0.09,0.74
		c0,0.08,0.01,0.24,0.03,0.48c0.02,0.14,0.03,0.24,0.03,0.31l3.16,0.5c2.06,0.31,3.5,0.77,4.34,1.39c0.83,0.62,1.25,1.5,1.25,2.66
		c0,0.63-0.17,1.28-0.52,1.94c-0.35,0.66-0.83,1.24-1.45,1.74c-0.87,0.71-1.86,1.24-2.97,1.61c-1.11,0.37-2.29,0.55-3.53,0.55
		c-1.87,0-3.34-0.38-4.38-1.12c-1.05-0.75-1.57-1.79-1.57-3.12c0-1.06,0.32-1.95,0.95-2.68c0.63-0.73,1.5-1.19,2.6-1.4
		c-0.11-0.26-0.19-0.51-0.24-0.75c-0.05-0.25-0.08-0.49-0.08-0.72c0-0.42,0.13-0.88,0.39-1.4c0.26-0.51,0.65-1.09,1.19-1.72
		c-1.25-0.28-2.25-0.86-2.98-1.76s-1.1-1.97-1.1-3.22c0-1.62,0.59-2.93,1.76-3.93c1.17-1,2.71-1.5,4.62-1.5
		c0.63,0,1.26,0.08,1.87,0.23C56.51,67.64,57.13,67.87,57.75,68.19z M52.39,82.43c-0.89,0.27-1.58,0.69-2.08,1.25
		s-0.75,1.22-0.75,1.96c0,0.98,0.42,1.8,1.25,2.45c0.84,0.65,1.91,0.97,3.21,0.97c1.4,0,2.57-0.34,3.5-1.01
		c0.93-0.67,1.4-1.5,1.4-2.47c0-0.74-0.2-1.28-0.61-1.64c-0.41-0.35-1.32-0.66-2.73-0.93L52.39,82.43z M53.7,68.54
		c-0.99,0-1.77,0.37-2.35,1.1c-0.58,0.73-0.88,1.72-0.88,2.95c0,1.22,0.3,2.2,0.89,2.94s1.37,1.11,2.34,1.11s1.74-0.37,2.34-1.11
		s0.89-1.72,0.89-2.94c0-1.22-0.29-2.2-0.88-2.94C55.46,68.91,54.68,68.54,53.7,68.54z"/>
	<path class="st0" d="M66.39,69.63h-2.33V68.6l3.81-1.17h1.25v13.22c0,2.41-0.14,4.12-0.43,5.15c-0.28,1.02-0.77,1.9-1.45,2.64
		c-0.63,0.7-1.35,1.23-2.17,1.59c-0.81,0.36-1.67,0.55-2.55,0.55c-0.71,0-1.26-0.16-1.67-0.47c-0.41-0.32-0.61-0.75-0.61-1.29
		c0-0.39,0.1-0.72,0.31-1.01s0.51-0.52,0.91-0.71l3.2,1.94c0.59-0.19,1.03-0.7,1.31-1.53c0.28-0.83,0.43-2.02,0.43-3.56V69.63z
		 M65.7,62.03c0-0.54,0.18-0.99,0.55-1.36c0.37-0.37,0.82-0.55,1.36-0.55c0.52,0,0.97,0.19,1.35,0.56s0.56,0.82,0.56,1.35
		c0,0.52-0.19,0.97-0.56,1.33c-0.37,0.36-0.82,0.55-1.35,0.55c-0.52,0-0.97-0.18-1.35-0.55C65.89,63,65.7,62.56,65.7,62.03z"/>
	<path class="st0" d="M80.41,67.25c2.24,0,4.07,0.77,5.51,2.3c1.43,1.54,2.15,3.51,2.15,5.92s-0.72,4.38-2.16,5.92
		c-1.44,1.54-3.27,2.3-5.5,2.3c-2.23,0-4.06-0.77-5.48-2.3c-1.43-1.53-2.14-3.51-2.14-5.93c0-2.42,0.71-4.4,2.13-5.93
		C76.33,68.02,78.16,67.25,80.41,67.25z M77.39,60.69c0.46,0,0.85,0.16,1.16,0.48c0.32,0.32,0.47,0.72,0.47,1.19
		c0,0.46-0.16,0.85-0.47,1.17c-0.32,0.32-0.7,0.48-1.16,0.48c-0.47,0-0.87-0.16-1.2-0.48c-0.33-0.32-0.49-0.71-0.49-1.17
		c0-0.47,0.16-0.87,0.49-1.19C76.52,60.85,76.92,60.69,77.39,60.69z M80.41,68.67c-1.37,0-2.47,0.62-3.3,1.85
		c-0.83,1.24-1.24,2.89-1.24,4.95s0.42,3.72,1.25,4.95c0.84,1.24,1.93,1.85,3.29,1.85c1.38,0,2.49-0.62,3.32-1.85
		c0.84-1.23,1.25-2.89,1.25-4.96c0-2.06-0.42-3.7-1.26-4.95S81.78,68.67,80.41,68.67z M83.5,60.69c0.47,0,0.86,0.16,1.18,0.48
		c0.32,0.32,0.47,0.72,0.47,1.19c0,0.46-0.16,0.85-0.48,1.17c-0.32,0.32-0.71,0.48-1.17,0.48c-0.46,0-0.85-0.16-1.18-0.48
		c-0.33-0.32-0.49-0.71-0.49-1.17c0-0.47,0.16-0.87,0.49-1.19C82.64,60.85,83.03,60.69,83.5,60.69z"/>
	<path class="st0" d="M90.24,83.41v-1.19l1.75-0.16l0.59-0.53V69.57h-2.1v-1.06l2.1-0.48v-0.37c0-2.64,0.61-4.76,1.83-6.34
		c1.22-1.58,2.84-2.38,4.85-2.38c0.74,0,1.35,0.18,1.83,0.54c0.48,0.36,0.72,0.81,0.72,1.34c0,0.4-0.12,0.74-0.35,1.04
		c-0.24,0.29-0.57,0.5-1,0.6l-2.99-1.96c-0.71,0.32-1.24,0.91-1.6,1.77c-0.36,0.86-0.54,1.98-0.54,3.35v2.41h4.58v1.54h-4.61v11.96
		l0.56,0.53l2.04,0.16v1.19H90.24z"/>
</g>
</svg>
