<!-- Generator: Adobe Illustrator 25.2.0, SVG Export Plug-In  -->
<svg version="1.1" xmlns="http://www.w3.org/2000/svg" xmlns:xlink="http://www.w3.org/1999/xlink" x="0px" y="0px"
	 width="141.33px" height="57.51px" viewBox="0 0 141.33 57.51" style="overflow:visible;enable-background:new 0 0 141.33 57.51;"
	 xml:space="preserve">
<style type="text/css">
	.st0{fill:#FFFFFF;}
</style>
<defs>
</defs>
<g>
	<path class="st0" d="M1.43,23.91V0.24h4.91v9.03h9.2V0.24h4.91v23.67h-4.91V13.35h-9.2v10.57H1.43z"/>
	<path class="st0" d="M31.78,13.27c0.85-0.11,1.46-0.24,1.83-0.4c0.66-0.28,0.99-0.71,0.99-1.3c0-0.72-0.25-1.21-0.76-1.49
		s-1.25-0.41-2.22-0.41c-1.1,0-1.87,0.27-2.33,0.8c-0.33,0.4-0.54,0.93-0.65,1.61h-4.42c0.1-1.53,0.53-2.79,1.29-3.77
		c1.21-1.54,3.3-2.31,6.26-2.31c1.92,0,3.63,0.38,5.13,1.14c1.49,0.76,2.24,2.19,2.24,4.3v8.03c0,0.56,0.01,1.23,0.03,2.02
		c0.03,0.6,0.12,1.01,0.27,1.22c0.15,0.21,0.37,0.39,0.67,0.53v0.67h-4.98c-0.14-0.35-0.24-0.69-0.29-1
		c-0.05-0.31-0.1-0.66-0.13-1.06c-0.64,0.69-1.37,1.27-2.2,1.75c-0.99,0.57-2.11,0.85-3.36,0.85c-1.59,0-2.91-0.45-3.95-1.36
		c-1.04-0.9-1.56-2.19-1.56-3.85c0-2.15,0.84-3.71,2.51-4.67c0.92-0.52,2.27-0.9,4.04-1.12L31.78,13.27z M34.58,15.4
		c-0.29,0.18-0.59,0.33-0.89,0.44c-0.3,0.11-0.71,0.22-1.23,0.31l-1.04,0.19c-0.98,0.17-1.68,0.38-2.1,0.63
		c-0.72,0.42-1.08,1.07-1.08,1.94c0,0.78,0.22,1.35,0.66,1.69c0.44,0.35,0.98,0.52,1.61,0.52c1,0,1.92-0.29,2.76-0.87
		c0.84-0.58,1.28-1.63,1.31-3.16V15.4z"/>
	<path class="st0" d="M50.38,0.02c0.24,0.02,0.56,0.04,0.96,0.07v3.73c-0.26-0.03-0.69-0.06-1.29-0.07c-0.6-0.02-1.02,0.12-1.25,0.4
		c-0.23,0.28-0.35,0.6-0.35,0.94c0,0.34,0,0.83,0,1.48h3V9.8h-3v14.12h-4.55V9.8h-2.57V6.57h2.51V5.44c0-1.87,0.32-3.16,0.95-3.87
		C45.45,0.52,47.06,0,49.59,0C49.88,0,50.14,0.01,50.38,0.02z"/>
	<path class="st0" d="M62.07,7.79c0.28,0.03,0.69,0.12,1.23,0.26c-0.82-0.9-1.4-1.5-1.73-1.82c-0.33-0.31-0.78-0.72-1.36-1.22
		l-3.55,1.6l-1.64-1.66l3.63-1.63c-0.59-0.41-0.97-0.69-1.13-0.84s-0.46-0.39-0.89-0.73l3.79-1.65c0.36,0.24,0.66,0.46,0.91,0.65
		s0.63,0.48,1.13,0.86l2.93-1.3l1.64,1.66l-2.86,1.27c1.2,1.26,2.03,2.16,2.49,2.7c0.72,0.84,1.3,1.63,1.74,2.37
		c0.88,1.5,1.48,2.84,1.78,4c0.3,1.17,0.45,2.37,0.45,3.6c0,2.4-0.73,4.41-2.19,6.04c-1.46,1.63-3.51,2.44-6.14,2.44
		c-2.73,0-4.84-0.8-6.34-2.39c-1.5-1.6-2.25-3.62-2.25-6.09c0-2.38,0.71-4.33,2.13-5.86c1.42-1.53,3.15-2.3,5.2-2.3
		C61.44,7.74,61.78,7.76,62.07,7.79z M65.2,12.46c-0.6-0.95-1.58-1.43-2.95-1.43c-1.19,0-2.14,0.41-2.86,1.23
		c-0.72,0.82-1.08,2.06-1.08,3.73c0,1.63,0.37,2.84,1.11,3.63c0.74,0.79,1.66,1.19,2.76,1.19c1.25,0,2.21-0.44,2.89-1.33
		c0.68-0.89,1.02-2.14,1.02-3.74C66.1,14.51,65.8,13.42,65.2,12.46z"/>
	<path class="st0" d="M78.74,6.41v10.55c0,1,0.12,1.75,0.35,2.25c0.42,0.89,1.23,1.33,2.44,1.33c1.56,0,2.62-0.63,3.2-1.9
		c0.3-0.69,0.45-1.59,0.45-2.71V6.41h4.64v17.51h-4.45v-2.47c-0.04,0.05-0.15,0.21-0.32,0.48c-0.17,0.27-0.37,0.5-0.61,0.71
		c-0.72,0.64-1.41,1.08-2.07,1.32c-0.67,0.24-1.45,0.35-2.35,0.35c-2.58,0-4.32-0.93-5.22-2.79c-0.5-1.03-0.75-2.54-0.75-4.54V6.41
		H78.74z"/>
	<path class="st0" d="M4.64,51.32c0.1,0.81,0.31,1.39,0.63,1.73c0.57,0.61,1.62,0.92,3.16,0.92c0.9,0,1.62-0.13,2.15-0.4
		s0.8-0.67,0.8-1.2c0-0.51-0.21-0.9-0.64-1.17s-2.03-0.73-4.79-1.38c-1.99-0.49-3.39-1.11-4.2-1.85c-0.81-0.73-1.22-1.78-1.22-3.15
		c0-1.62,0.64-3.01,1.91-4.17c1.27-1.16,3.06-1.74,5.37-1.74c2.19,0,3.97,0.44,5.35,1.31c1.38,0.87,2.17,2.38,2.37,4.52h-4.58
		c-0.06-0.59-0.23-1.05-0.5-1.4c-0.5-0.62-1.36-0.93-2.58-0.93c-1,0-1.71,0.16-2.13,0.47s-0.64,0.67-0.64,1.09
		c0,0.52,0.23,0.9,0.68,1.14c0.45,0.25,2.04,0.67,4.78,1.27c1.82,0.43,3.19,1.08,4.1,1.94c0.9,0.88,1.35,1.98,1.35,3.29
		c0,1.73-0.65,3.15-1.94,4.25c-1.29,1.1-3.29,1.65-5.99,1.65c-2.76,0-4.79-0.58-6.11-1.74S0,53.12,0,51.32H4.64z"/>
	<path class="st0" d="M26.32,46.27c0.85-0.11,1.46-0.24,1.83-0.4c0.66-0.28,0.99-0.71,0.99-1.3c0-0.72-0.25-1.21-0.76-1.49
		s-1.25-0.41-2.22-0.41c-1.1,0-1.87,0.27-2.33,0.8c-0.33,0.4-0.54,0.93-0.65,1.61h-4.42c0.1-1.53,0.53-2.79,1.29-3.77
		c1.21-1.54,3.3-2.31,6.26-2.31c1.92,0,3.63,0.38,5.13,1.14c1.49,0.76,2.24,2.19,2.24,4.3v8.03c0,0.56,0.01,1.23,0.03,2.02
		c0.03,0.6,0.12,1.01,0.27,1.22c0.15,0.21,0.37,0.39,0.67,0.53v0.67h-4.98c-0.14-0.35-0.24-0.69-0.29-1
		c-0.05-0.31-0.1-0.66-0.13-1.06c-0.64,0.69-1.37,1.27-2.2,1.75c-0.99,0.57-2.11,0.85-3.36,0.85c-1.59,0-2.91-0.45-3.95-1.36
		c-1.04-0.9-1.56-2.19-1.56-3.85c0-2.15,0.84-3.71,2.51-4.67c0.92-0.52,2.27-0.9,4.04-1.12L26.32,46.27z M29.12,48.4
		c-0.29,0.18-0.59,0.33-0.89,0.44c-0.3,0.11-0.71,0.22-1.23,0.31l-1.04,0.19c-0.98,0.17-1.68,0.38-2.1,0.63
		c-0.72,0.42-1.08,1.07-1.08,1.94c0,0.78,0.22,1.35,0.66,1.69c0.44,0.35,0.98,0.52,1.61,0.52c1,0,1.92-0.29,2.76-0.87
		c0.84-0.58,1.28-1.63,1.31-3.16V48.4z"/>
	<path class="st0" d="M59.52,39.47c0.75,0.3,1.43,0.82,2.04,1.57c0.49,0.61,0.82,1.36,1,2.25c0.11,0.59,0.16,1.45,0.16,2.59
		l-0.03,11.03h-4.69V45.77c0-0.66-0.11-1.21-0.32-1.64c-0.41-0.81-1.16-1.22-2.25-1.22c-1.26,0-2.14,0.52-2.62,1.57
		c-0.25,0.56-0.37,1.23-0.37,2.01v10.42h-4.61V46.49c0-1.04-0.11-1.79-0.32-2.26c-0.39-0.85-1.14-1.27-2.26-1.27
		c-1.31,0-2.18,0.42-2.63,1.27c-0.25,0.48-0.37,1.2-0.37,2.15v10.54H37.6V39.44h4.45v2.55c0.57-0.91,1.1-1.56,1.61-1.94
		c0.89-0.69,2.04-1.03,3.45-1.03c1.34,0,2.42,0.29,3.24,0.88c0.66,0.55,1.17,1.25,1.51,2.1c0.6-1.03,1.34-1.78,2.23-2.26
		c0.94-0.48,1.99-0.72,3.15-0.72C58.01,39.02,58.77,39.17,59.52,39.47z"/>
	<path class="st0" d="M81.87,41.51c1.31,1.66,1.96,3.8,1.96,6.42c0,2.72-0.65,4.97-1.94,6.76s-3.09,2.68-5.41,2.68
		c-1.45,0-2.62-0.29-3.5-0.87c-0.53-0.34-1.1-0.94-1.71-1.8v2.2h-4.51V33.27h4.58v8.42c0.58-0.81,1.22-1.43,1.92-1.86
		c0.83-0.54,1.89-0.8,3.17-0.8C78.75,39.02,80.56,39.85,81.87,41.51z M78.04,52.18c0.66-0.95,0.99-2.21,0.99-3.76
		c0-1.24-0.16-2.27-0.49-3.08c-0.62-1.54-1.75-2.31-3.4-2.31c-1.67,0-2.82,0.75-3.45,2.26c-0.32,0.8-0.49,1.84-0.49,3.12
		c0,1.5,0.33,2.74,1,3.73c0.67,0.98,1.69,1.48,3.06,1.48C76.46,53.6,77.38,53.13,78.04,52.18z"/>
	<path class="st0" d="M93.95,46.27c0.85-0.11,1.46-0.24,1.83-0.4c0.66-0.28,0.99-0.71,0.99-1.3c0-0.72-0.25-1.21-0.76-1.49
		s-1.25-0.41-2.22-0.41c-1.1,0-1.87,0.27-2.33,0.8c-0.33,0.4-0.54,0.93-0.65,1.61h-4.42c0.1-1.53,0.53-2.79,1.29-3.77
		c1.21-1.54,3.3-2.31,6.26-2.31c1.92,0,3.63,0.38,5.13,1.14c1.49,0.76,2.24,2.19,2.24,4.3v8.03c0,0.56,0.01,1.23,0.03,2.02
		c0.03,0.6,0.12,1.01,0.27,1.22c0.15,0.21,0.37,0.39,0.67,0.53v0.67h-4.98c-0.14-0.35-0.24-0.69-0.29-1
		c-0.05-0.31-0.1-0.66-0.13-1.06c-0.64,0.69-1.37,1.27-2.2,1.75c-0.99,0.57-2.11,0.85-3.36,0.85c-1.59,0-2.91-0.45-3.95-1.36
		c-1.04-0.9-1.56-2.19-1.56-3.85c0-2.15,0.84-3.71,2.51-4.67c0.92-0.52,2.27-0.9,4.04-1.12L93.95,46.27z M96.74,48.4
		c-0.29,0.18-0.59,0.33-0.89,0.44c-0.3,0.11-0.71,0.22-1.23,0.31l-1.04,0.19c-0.98,0.17-1.68,0.38-2.1,0.63
		c-0.72,0.42-1.08,1.07-1.08,1.94c0,0.78,0.22,1.35,0.66,1.69c0.44,0.35,0.98,0.52,1.61,0.52c1,0,1.92-0.29,2.76-0.87
		c0.84-0.58,1.28-1.63,1.31-3.16V48.4z"/>
	<path class="st0" d="M119.42,40.41c1.15,0.95,1.72,2.52,1.72,4.71v11.79h-4.69V46.27c0-0.92-0.12-1.63-0.37-2.12
		c-0.45-0.9-1.3-1.35-2.55-1.35c-1.54,0-2.6,0.66-3.17,1.98c-0.3,0.7-0.45,1.58-0.45,2.67v9.48h-4.58V39.44h4.43v2.55
		c0.59-0.9,1.14-1.55,1.66-1.94c0.94-0.71,2.13-1.06,3.57-1.06C116.8,38.99,118.27,39.46,119.42,40.41z"/>
	<path class="st0" d="M134.68,39.69c0.82,0.47,1.49,1.11,2.01,1.94v-8.35h4.64v23.64h-4.45v-2.42c-0.65,1.04-1.4,1.79-2.23,2.26
		s-1.87,0.71-3.12,0.71c-2.04,0-3.77-0.83-5.16-2.48c-1.4-1.65-2.1-3.78-2.1-6.37c0-2.99,0.69-5.34,2.06-7.05s3.21-2.57,5.52-2.57
		C132.91,38.99,133.85,39.22,134.68,39.69z M135.8,52.16c0.67-0.96,1.01-2.21,1.01-3.74c0-2.14-0.54-3.67-1.62-4.59
		c-0.66-0.56-1.44-0.83-2.31-0.83c-1.34,0-2.32,0.51-2.95,1.52c-0.63,1.01-0.94,2.27-0.94,3.77c0,1.62,0.32,2.91,0.96,3.88
		c0.64,0.97,1.6,1.45,2.9,1.45S135.13,53.12,135.8,52.16z"/>
</g>
</svg>
